# xmcd CD database file
#
# Track frame offsets:
#	150
#	30938
#	61186
#	84275
#	118860
#	144111
#	171438
#	197211
#
# Disc length: 2982 seconds
#
# Revision: 1
# Processed by: cddbd v1.5.1PL2 Copyright (c) Steve Scherf et al.
# Submitted via: CDex 1.51
#
DISCID=610ba408
DTITLE=Min Rager - Bright Road
DYEAR=2005
DGENRE=Jazz
TTITLE0=Devil Heart
TTITLE1=Sourire Dans La Pluie
TTITLE2=Bright Road
TTITLE3=Trailing
TTITLE4=Violet
TTITLE5=Recollection
TTITLE6=The Great Bear
TTITLE7=Romanticism
EXTD=YEAR: 2005
EXTT0=
EXTT1=
EXTT2=
EXTT3=
EXTT4=
EXTT5=
EXTT6=
EXTT7=
PLAYORDER=
